<?xml version="1.0" encoding="UTF-8"?>
<svg version="1.1" xmlns="http://www.w3.org/2000/svg" width="1024" height="1024">
<path d="M0 0 C-0.65952958 3.9813066 -1.83372735 7.70144208 -3.06982422 11.5300293 C-14.61211605 47.83330194 -12.99215961 86.94468729 2 122 C2.29213379 122.69432129 2.58426758 123.38864258 2.88525391 124.10400391 C11.89669525 145.21695013 24.89277546 164.26514282 38 183 C39.21372764 184.74336012 40.42727208 186.48684781 41.640625 188.23046875 C46.08351913 194.60257029 50.54468025 200.96147091 55.05078125 207.2890625 C66.47769003 223.34545013 77.93094093 239.46501831 87 257 C87.34224609 257.6585498 87.68449219 258.31709961 88.03710938 258.99560547 C115.20485125 312.01857636 118.78362248 379.2716743 108 437 C115.09630577 426.90600244 121.95216237 416.76131109 128 406 C128.46019531 405.18208984 128.92039062 404.36417969 129.39453125 403.52148438 C151.46254874 363.83981177 160.59828353 322.75138286 164 278 C173.73891907 287.67171953 181.45882226 298.59018025 189 310 C189.47840332 310.721875 189.95680664 311.44375 190.44970703 312.1875 C239.72174091 387.04277314 266.53674584 481.29078243 248.58642578 570.4074707 C240.75994301 608.15886065 225.49355993 644.64162006 203 676 C202.60361328 676.55929199 202.20722656 677.11858398 201.79882812 677.69482422 C186.7066901 698.88790018 168.12762401 718.77380422 147 734 C145.91162639 734.81619833 144.82439856 735.6339266 143.73828125 736.453125 C99.49505805 769.42146229 40.96766129 790.59787138 -14.55078125 789.0078125 C-17.75462547 788.84713851 -17.75462547 788.84713851 -19.7878418 789.49072266 C-29.65175725 791.76156778 -41.59351063 789.79237378 -51.5 788.75 C-52.80098633 788.61432617 -54.10197266 788.47865234 -55.44238281 788.33886719 C-84.83800477 785.18615229 -112.58829562 778.08176434 -140 767 C-140.74926758 766.70125977 -141.49853516 766.40251953 -142.27050781 766.09472656 C-171.18533135 754.46638129 -197.60956868 736.5821125 -220 715 C-220.60521484 714.41669922 -221.21042969 713.83339844 -221.83398438 713.23242188 C-229.75179907 705.55478356 -237.31475011 697.79701655 -244 689 C-244.41668945 688.45972168 -244.83337891 687.91944336 -245.26269531 687.36279297 C-287.57569717 632.3188551 -308.78332971 559.82396418 -299.875 490.625 C-295.71872031 462.57331316 -286.67214562 435.74797918 -275 410 C-274.65388672 409.21882813 -274.30777344 408.43765625 -273.95117188 407.6328125 C-268.17098631 394.60271677 -261.17151497 382.42622537 -253.89111328 370.18408203 C-224.5367882 320.75997828 -201.6246574 271.50144733 -216.5 212.87890625 C-217.72278662 208.27258408 -219.02033905 203.69125575 -220.38330078 199.12451172 C-220.97297552 197.09309859 -221.50087377 195.05532843 -222 193 C-195.58433714 206.25805132 -177.38174758 231.27432286 -164 257 C-163.47792969 258.00305176 -163.47792969 258.00305176 -162.9453125 259.02636719 C-140.48015758 302.87986978 -137.09160554 354.90843809 -146.4140625 402.76171875 C-147.08902486 405.94353335 -147.08902486 405.94353335 -147 409 C-136.26750803 393.839845 -125.99176788 378.71827282 -120 361 C-119.74766602 360.25411621 -119.49533203 359.50823242 -119.23535156 358.73974609 C-116.14448104 349.41173574 -113.62207755 340.02312301 -111.75 330.375 C-111.59901855 329.6020459 -111.44803711 328.8290918 -111.29248047 328.03271484 C-108.37356644 311.96387922 -107.70843154 296.07625585 -107.69503975 279.77741623 C-107.69130601 276.11254487 -107.67438867 272.44792781 -107.65428162 268.78311157 C-107.59956216 258.3749879 -107.568466 247.96682733 -107.54370117 237.55859375 C-107.35470562 165.41701152 -107.35470562 165.41701152 -99 131 C-98.68960491 129.6433433 -98.37966019 128.28658342 -98.0703125 126.9296875 C-90.90088099 97.5540522 -76.020106 69.62706471 -56 47 C-55.54125488 46.48099121 -55.08250977 45.96198242 -54.60986328 45.42724609 C-44.68984744 34.2709078 -33.86401747 24.71766926 -22.05664062 15.59765625 C-19.75152814 13.80698008 -17.46135161 11.99812002 -15.171875 10.1875 C-13.53132168 8.8957423 -11.89069748 7.6040746 -10.25 6.3125 C-9.46302734 5.68770752 -8.67605469 5.06291504 -7.86523438 4.41918945 C-7.13111328 3.84386475 -6.39699219 3.26854004 -5.640625 2.67578125 C-4.98610352 2.15927002 -4.33158203 1.64275879 -3.65722656 1.1105957 C-2 0 -2 0 0 0 Z " fill="#F4691C" transform="translate(537,63)"/>
<path d="M0 0 C9.65904971 8.082062 17.41436146 16.97774618 25 27 C25.62479248 27.81766846 25.62479248 27.81766846 26.26220703 28.65185547 C58.2421412 70.77145412 74.62334658 121.03351385 81 173 C81.10199707 173.82097168 81.20399414 174.64194336 81.30908203 175.48779297 C82.52255075 185.50968943 83.18000849 195.51367557 83.52734375 205.6015625 C83.56964615 206.80814514 83.61194855 208.01472778 83.65553284 209.25787354 C83.96173917 218.56158084 84.13356927 227.86428249 84.24609375 237.171875 C84.25866966 238.18994043 84.25866966 238.18994043 84.27149963 239.22857285 C84.34807173 245.4814018 84.41960764 251.73426657 84.47680664 257.98730469 C84.78097063 290.42388504 87.23042179 315.3921651 108.70703125 341.26953125 C124.56933449 360.55753541 130.61145496 379.12306871 131 404 C135.3134854 398.28507075 138.97709937 392.45284206 142.1875 386.0625 C142.50783203 385.43150391 142.82816406 384.80050781 143.15820312 384.15039062 C147.85483514 374.59250239 150.77101696 364.63948804 153.25 354.3125 C153.518125 353.21744141 153.78625 352.12238281 154.0625 350.99414062 C154.71381936 348.33070968 155.35955461 345.6660625 156 343 C171.19129692 365.78694539 167.07061592 407.42999564 162 433 C154.25814751 470.43729932 138.23197266 501.69123877 113.27832031 530.52197266 C112.1145038 531.86760772 110.95912454 533.22052834 109.8046875 534.57421875 C105.52903771 539.51217508 101.01070185 543.82004278 96 548 C95.12730469 548.76054688 94.25460937 549.52109375 93.35546875 550.3046875 C77.95969195 563.53639929 60.56775838 573.85732855 42 582 C42.33 582.66 42.66 583.32 43 584 C-8.33360516 601.47143755 -8.33360516 601.47143755 -29.56640625 593.5625 C-36.23039841 591.11456726 -43.14062992 589.4184501 -49.99365234 587.58764648 C-56.53373657 585.80553816 -62.76876162 583.67151913 -69 581 C-65.22134307 579.74044769 -63.96588214 580.51912811 -60.3125 581.9375 C-58.82169922 582.50791016 -58.82169922 582.50791016 -57.30078125 583.08984375 C-56.54152344 583.39019531 -55.78226562 583.69054687 -55 584 C-55.57709717 583.71261963 -56.15419434 583.42523926 -56.7487793 583.12915039 C-74.50739125 574.22191904 -91.14875495 565.28474386 -106 552 C-107.35388853 550.85383805 -108.70801624 549.70795849 -110.0625 548.5625 C-121.1578648 538.69737439 -130.30647803 528.01834368 -139 516 C-139.67675781 515.08226807 -139.67675781 515.08226807 -140.3671875 514.14599609 C-167.72843643 476.80410977 -178.14892895 426.00219482 -171.75390625 380.484375 C-163.69873951 330.04611575 -137.71397263 285.70997595 -104 248 C-103.19820313 247.09894531 -102.39640625 246.19789063 -101.5703125 245.26953125 C-100.10289195 243.63201178 -98.6304961 241.99893241 -97.15234375 240.37109375 C-95.65761439 238.72444997 -94.17120285 237.07023264 -92.69140625 235.41015625 C-88.7968553 231.04274245 -84.84231777 226.80270487 -80.671875 222.69921875 C-78.28863303 220.27699852 -76.08177488 217.71719682 -73.86328125 215.14453125 C-71.87723372 212.85870296 -69.8484924 210.61642587 -67.8125 208.375 C-27.18799157 163.21374444 4.85534295 111.36459071 4.4375 48.875 C4.43645264 47.99100525 4.43540527 47.1070105 4.43432617 46.19622803 C4.40019175 32.17108768 3.355916 18.7301406 0.3671875 4.98486328 C0 3 0 3 0 0 Z " fill="#FA9D1A" transform="translate(519,256)"/>
<path d="M0 0 C1.37716795 2.7543359 0.70665571 4.21562434 0.07421875 7.21484375 C-0.14468018 8.28323486 -0.3635791 9.35162598 -0.58911133 10.45239258 C-0.82782959 11.60247803 -1.06654785 12.75256348 -1.3125 13.9375 C-10.14271302 58.58672643 -8.68791246 103.28005606 16.8203125 142.25927734 C21.47013698 149.12046289 26.68567822 155.51074207 32.11035156 161.76806641 C54.05353741 187.14228448 66.45581312 216.00068146 66.26074219 249.79296875 C66.25001131 251.99767541 66.26071065 254.20156766 66.2734375 256.40625 C66.28966423 269.44196532 64.63983415 281.36931924 60.375 293.75 C60.02381104 294.78278076 59.67262207 295.81556152 59.31079102 296.87963867 C46.46709778 333.76841945 21.55741033 362.76154623 -11.75 382.875 C-12.8225 383.57625 -13.895 384.2775 -15 385 C-15 385.66 -15 386.32 -15 387 C-29.97504658 390.30592355 -43.04119585 391.69112608 -57.6640625 386.234375 C-60.39966496 385.22213803 -62.96804331 384.47059021 -65.8125 383.875 C-69 383 -69 383 -71 380 C-72.97776828 378.95672026 -74.98132302 377.9617397 -77 377 C-114.623973 353.99889894 -140.62364408 317.6295289 -151 275 C-151.17789062 274.30874023 -151.35578125 273.61748047 -151.5390625 272.90527344 C-162.75402192 228.60173336 -145.47593201 179.58412974 -123.3125 141.5625 C-112.71700405 123.8717096 -100.9374361 107.04485114 -88 91 C-87.23042969 90.02933594 -86.46085937 89.05867187 -85.66796875 88.05859375 C-83.79216726 85.6944179 -81.8999087 83.34482403 -80 81 C-79.28585937 80.11183594 -78.57171875 79.22367188 -77.8359375 78.30859375 C-72.74671878 72.02139743 -67.4496529 65.97549661 -62 60 C-60.62464309 58.45865174 -59.24965122 56.91697767 -57.875 55.375 C-49.34435138 45.90478693 -40.6328856 36.58027874 -31.6875 27.5 C-30.82511719 26.6234375 -29.96273437 25.746875 -29.07421875 24.84375 C-27 23 -27 23 -25 23 C-24.67 22.01 -24.34 21.02 -24 20 C-22.38840371 18.54092979 -20.71025332 17.15457379 -19 15.8125 C-14.52545244 12.245663 -10.20756143 8.57359786 -5.97265625 4.7265625 C-4.04866807 3.04259661 -2.0650704 1.50606924 0 0 Z " fill="#FECC34" transform="translate(546,463)"/>
<path d="M0 0 C26.41566286 13.25805132 44.61825242 38.27432286 58 64 C58.52207031 65.00305176 58.52207031 65.00305176 59.0546875 66.02636719 C80.99838551 108.86195062 84.99131423 160.05968303 76.125 206.9375 C75.97579102 207.74823975 75.82658203 208.55897949 75.67285156 209.39428711 C74.18954422 216.60228112 71.25020542 221.9565056 66.25 227.4375 C65.63640625 228.11683594 65.0228125 228.79617188 64.390625 229.49609375 C63.93171875 229.99238281 63.4728125 230.48867188 63 231 C61.6757935 228.35158699 61.92058702 226.4166347 61.97265625 223.453125 C61.98643311 222.30875977 62.00020996 221.16439453 62.0144043 219.98535156 C62.03821167 218.13635254 62.03821167 218.13635254 62.0625 216.25 C62.16995121 198.16584574 60.8013374 180.68889005 57 163 C54.80780823 165.76024577 53.19280678 168.44860365 51.72265625 171.6484375 C51.29847412 172.55883789 50.87429199 173.46923828 50.43725586 174.40722656 C49.98358643 175.3865918 49.52991699 176.36595703 49.0625 177.375 C45.40988987 185.135053 41.60432483 192.75359276 37.4375 200.25 C32.0109549 210.0259825 26.85475388 219.92851667 21.75 229.875 C21.18585892 230.97285828 21.18585892 230.97285828 20.61032104 232.09289551 C18.42036854 236.35678685 16.23944944 240.6251552 14.06829834 244.89865112 C13.35213581 246.30734687 12.63454962 247.7153197 11.91558838 249.12258911 C7.7154842 257.35021811 3.69176384 265.55428648 0.375 274.1875 C-0.18610474 275.63914551 -0.18610474 275.63914551 -0.75854492 277.12011719 C-16.22111311 317.96814817 -20.92968681 361.87602591 -14 405 C-13.87141602 405.84159668 -13.74283203 406.68319336 -13.61035156 407.55029297 C-7.22751497 448.22666507 12.50788135 490.38578094 42.32421875 519.25 C44 521 44 521 44 523 C44.56460938 523.23589844 45.12921875 523.47179687 45.7109375 523.71484375 C48.52071963 525.29234942 50.39619051 527.24051286 52.625 529.5625 C55.51070681 532.69042054 55.51070681 532.69042054 59 535 C59 535.66 59 536.32 59 537 C59.81597656 537.35964844 59.81597656 537.35964844 60.6484375 537.7265625 C63.58655404 539.31763558 66.0129416 541.28940299 68.625 543.375 C88.25457099 558.68031848 109.43679039 570.38928718 132.72753906 579.13867188 C134.80621205 579.92654879 136.86900542 580.74456696 138.9296875 581.578125 C150.13033304 586.04301205 161.70818283 589.13209785 173.33642578 592.27539062 C176.56655092 593.15412678 179.78444149 594.06954052 183 595 C183 595.33 183 595.66 183 596 C174.51744157 596.25346937 166.33870487 595.51502682 157.9375 594.375 C157.28760101 594.28697113 156.63770203 594.19894226 155.96810913 594.10824585 C98.64538806 586.23789126 43.86558112 562.3541883 2 522 C1.39478516 521.41669922 0.78957031 520.83339844 0.16601562 520.23242188 C-7.75179907 512.55478356 -15.31475011 504.79701655 -22 496 C-22.41668945 495.45972168 -22.83337891 494.91944336 -23.26269531 494.36279297 C-65.57569717 439.3188551 -86.78332971 366.82396418 -77.875 297.625 C-73.71872031 269.57331316 -64.67214562 242.74797918 -53 217 C-52.65388672 216.21882812 -52.30777344 215.43765625 -51.95117188 214.6328125 C-46.17098631 201.60271677 -39.17151497 189.42622537 -31.89111328 177.18408203 C-2.5367882 127.75997828 20.3753426 78.50144733 5.5 19.87890625 C4.27721338 15.27258408 2.97966095 10.69125575 1.61669922 6.12451172 C1.02702448 4.09309859 0.49912623 2.05532843 0 0 Z " fill="#E13122" transform="translate(315,256)"/>
<path d="M0 0 C9.73891907 9.67171953 17.45882226 20.59018025 25 32 C25.47840332 32.721875 25.95680664 33.44375 26.44970703 34.1875 C75.72174091 109.04277314 102.53674584 203.29078243 84.58642578 292.4074707 C76.75994301 330.15886065 61.49355993 366.64162006 39 398 C38.60361328 398.55929199 38.20722656 399.11858398 37.79882812 399.69482422 C22.7066901 420.88790018 4.12762401 440.77380422 -17 456 C-18.08837361 456.81619833 -19.17560144 457.6339266 -20.26171875 458.453125 C-64.16397158 491.16738437 -123.73062985 513.42646015 -179 511 C-179 510.67 -179 510.34 -179 510 C-178.39591309 509.83781982 -177.79182617 509.67563965 -177.16943359 509.50854492 C-113.88994866 492.3954087 -53.80279695 466.871573 -14 412 C-13.6076416 411.46310547 -13.2152832 410.92621094 -12.81103516 410.37304688 C31.98943739 348.63878332 44.55050255 268.68183714 33.44775391 194.30029297 C32.17444295 186.48916316 30.65487284 178.73852435 29 171 C28.80148437 170.06124023 28.60296875 169.12248047 28.3984375 168.15527344 C25.46107411 154.49163806 21.42545775 141.24951743 17 128 C16.87471924 128.74870361 16.74943848 129.49740723 16.62036133 130.26879883 C10.63228484 165.7328763 2.81295705 203.57733825 -27.6875 226.625 C-29.43545095 227.78523411 -31.20574916 228.91273755 -33 230 C-33.84304688 230.52335938 -34.68609375 231.04671875 -35.5546875 231.5859375 C-41.32439604 234.83926225 -46.40112684 236.17796176 -53 235 C-58.62440828 232.66533996 -60.50671766 228.79661383 -63.01953125 223.53515625 C-68.58104548 209.15498598 -65.14003528 190.63356327 -61.52929688 176.14501953 C-61.06704233 174.27169463 -60.66142734 172.3845762 -60.265625 170.49609375 C-57.87878984 160.76608716 -52.12491999 153.26210963 -46.48681641 145.16650391 C-16.44744532 101.3948489 -3.96221366 52.12502049 0 0 Z " fill="#DF3220" transform="translate(701,341)"/>
<path d="M0 0 C8.93347953 1.29274974 17.39758469 3.77021064 26.00585938 6.3984375 C28.9943774 7.29996889 31.99623997 8.15076942 35 9 C35 9.33 35 9.66 35 10 C27.05252609 10.19533265 19.37927846 9.64168109 11.5 8.625 C10.43007813 8.49867188 9.36015625 8.37234375 8.2578125 8.2421875 C7.23429687 8.11328125 6.21078125 7.984375 5.15625 7.8515625 C4.23650391 7.73635254 3.31675781 7.62114258 2.36914062 7.50244141 C0 7 0 7 -3 5 C-0.69 4.34 1.62 3.68 4 3 C2.68 2.01 1.36 1.02 0 0 Z " fill="#E12115" transform="translate(463,842)"/>
<path d="M0 0 C-2.31 0.66 -4.62 1.32 -7 2 C-7 2.66 -7 3.32 -7 4 C-4.36 4 -1.72 4 1 4 C1 4.33 1 4.66 1 5 C-9.12062972 6.60781635 -18.75573889 7.2615556 -29 7 C-29 6.67 -29 6.34 -29 6 C-28.05253906 5.74476563 -28.05253906 5.74476563 -27.0859375 5.484375 C-26.19132813 5.24203125 -25.29671875 4.9996875 -24.375 4.75 C-23.38113281 4.481875 -22.38726563 4.21375 -21.36328125 3.9375 C-18.99843598 3.27830968 -16.64217199 2.58792996 -14.29296875 1.875 C-12.44638672 1.318125 -12.44638672 1.318125 -10.5625 0.75 C-8.83193359 0.21632813 -8.83193359 0.21632813 -7.06640625 -0.328125 C-4.14791358 -0.96759091 -2.74139739 -1.05075674 0 0 Z " fill="#E1261A" transform="translate(551,845)"/>
<path d="M0 0 C0.33 0 0.66 0 1 0 C1.33 1.98 1.66 3.96 2 6 C2.33 6 2.66 6 3 6 C3 14.58 3 23.16 3 32 C2.67 32 2.34 32 2 32 C1.67 33.98 1.34 35.96 1 38 C0.67 38 0.34 38 0 38 C0 25.46 0 12.92 0 0 Z " fill="#E23E2C" transform="translate(788,557)"/>
<path d="M0 0 C8.13062358 1.04911272 15.29724333 5.54367131 22 10 C18.63327549 11.1222415 17.76943913 10.87342568 14.47265625 9.890625 C13.59802734 9.63023437 12.72339844 9.36984375 11.82226562 9.1015625 C10.45618164 8.68003906 10.45618164 8.68003906 9.0625 8.25 C7.7022168 7.85167969 7.7022168 7.85167969 6.31445312 7.4453125 C1.92609541 6.11492002 -1.41027754 4.93578673 -5 2 C-1.34056353 2.68907122 2.22441959 3.56821266 5.8125 4.5625 C7.27623047 4.96662109 7.27623047 4.96662109 8.76953125 5.37890625 C9.87361328 5.68634766 9.87361328 5.68634766 11 6 C10.37351562 5.73445312 9.74703125 5.46890625 9.1015625 5.1953125 C8.28429687 4.84210937 7.46703125 4.48890625 6.625 4.125 C5.81289063 3.77695312 5.00078125 3.42890625 4.1640625 3.0703125 C2 2 2 2 0 0 Z " fill="#FB9C4C" transform="translate(455,834)"/>
<path d="M0 0 C-10.24929548 3.55446948 -20.34888474 6.85472237 -31 9 C-31.33 8.34 -31.66 7.68 -32 7 C-27.00683886 3.86144157 -22.12857562 3.31841344 -16.3359375 2.54296875 C-12.40278527 1.90279526 -8.77685727 0.80384865 -5.0234375 -0.51171875 C-3 -1 -3 -1 0 0 Z " fill="#FA9C5A" transform="translate(562,840)"/>
<path d="M0 0 C0.80244141 0.22880859 1.60488281 0.45761719 2.43164062 0.69335938 C3.26501953 0.94021484 4.09839844 1.18707031 4.95703125 1.44140625 C6.22450195 1.80588867 6.22450195 1.80588867 7.51757812 2.17773438 C9.60377235 2.77884118 11.68695426 3.39038459 13.76953125 4.00390625 C13.76953125 4.33390625 13.76953125 4.66390625 13.76953125 5.00390625 C2.93772697 5.1965668 2.93772697 5.1965668 -2.23046875 4.00390625 C-2.56046875 3.67390625 -2.89046875 3.34390625 -3.23046875 3.00390625 C-5.23005239 2.96309842 -7.23092129 2.96136269 -9.23046875 3.00390625 C-6.42699663 -1.20130194 -4.55028 -1.32313107 0 0 Z " fill="#E8362C" transform="translate(477.23046875,844.99609375)"/>
<path d="M0 0 C0.33 0.66 0.66 1.32 1 2 C-5.82626992 10.15822503 -13.43799837 17.53279684 -21 25 C-21.66 24.67 -22.32 24.34 -23 24 C-22.44538086 23.45061768 -21.89076172 22.90123535 -21.31933594 22.33520508 C-18.79356709 19.83029944 -16.27175563 17.32144555 -13.75 14.8125 C-12.87730469 13.94818359 -12.00460937 13.08386719 -11.10546875 12.19335938 C-9.83896484 10.93168945 -9.83896484 10.93168945 -8.546875 9.64453125 C-7.77182617 8.87471924 -6.99677734 8.10490723 -6.19824219 7.31176758 C-3.97778625 4.97663905 -1.97542657 2.54405036 0 0 Z " fill="#DB2323" transform="translate(680,762)"/>
<path d="M0 0 C0.66 0 1.32 0 2 0 C1.33646475 3.59106414 0.44344056 7.02952981 -0.62890625 10.51953125 C-0.94150391 11.54111328 -1.25410156 12.56269531 -1.57617188 13.61523438 C-1.90166016 14.67033203 -2.22714844 15.72542969 -2.5625 16.8125 C-2.89185547 17.88693359 -3.22121094 18.96136719 -3.56054688 20.06835938 C-4.37154236 22.71290985 -5.18476372 25.35675437 -6 28 C-7.12857435 24.65159311 -6.85859105 22.67743395 -5.78515625 19.33984375 C-5.37426758 18.0259668 -5.37426758 18.0259668 -4.95507812 16.68554688 C-4.66052734 15.77869141 -4.36597656 14.87183594 -4.0625 13.9375 C-3.48726473 12.13526622 -2.91549337 10.33192215 -2.34765625 8.52734375 C-2.08992432 7.73062256 -1.83219238 6.93390137 -1.56665039 6.11303711 C-0.87049158 3.88167978 -0.87049158 3.88167978 -1 1 C-0.67 0.67 -0.34 0.34 0 0 Z " fill="#F54B10" transform="translate(535,63)"/>
<path d="M0 0 C2.0625 0.4375 2.0625 0.4375 4 1 C3.34 2.98 2.68 4.96 2 7 C-0.64 6.67 -3.28 6.34 -6 6 C-4 4 -2 2 0 0 Z " fill="#F75E1F" transform="translate(531,66)"/>
<path d="M0 0 C2.20914 3.31371 2.22481553 4.3446021 2.125 8.1875 C2.10695313 9.08855469 2.08890625 9.98960937 2.0703125 10.91796875 C2.03550781 11.94857422 2.03550781 11.94857422 2 13 C1.34 13 0.68 13 0 13 C-0.33 14.32 -0.66 15.64 -1 17 C-1.10477512 11.21408489 -0.99250545 5.70690634 0 0 Z " fill="#DC2117" transform="translate(700,360)"/>
<path d="M0 0 C0.91007813 0.10183594 1.82015625 0.20367188 2.7578125 0.30859375 C3.45648437 0.39238281 4.15515625 0.47617187 4.875 0.5625 C3.885 2.0475 3.885 2.0475 2.875 3.5625 C-0.425 3.2325 -3.725 2.9025 -7.125 2.5625 C-7.125 1.9025 -7.125 1.2425 -7.125 0.5625 C-4.50184968 -0.74907516 -2.89466564 -0.33399988 0 0 Z " fill="#E43929" transform="translate(551.125,846.4375)"/>
<path d="M0 0 C0.80824219 0.28746094 1.61648438 0.57492187 2.44921875 0.87109375 C3.06410156 1.09925781 3.67898438 1.32742188 4.3125 1.5625 C1.16319107 2.61226964 -1.07564456 2.66381595 -4.375 2.625 C-5.36886719 2.61597656 -6.36273438 2.60695313 -7.38671875 2.59765625 C-8.52560547 2.58025391 -8.52560547 2.58025391 -9.6875 2.5625 C-6.68572882 -1.94015677 -4.71294341 -1.70758819 0 0 Z " fill="#E32B28" transform="translate(477.6875,845.4375)"/>
<path d="M0 0 C0.66 0.33 1.32 0.66 2 1 C1 3 1 3 -0.9609375 3.88671875 C-1.75757813 4.15097656 -2.55421875 4.41523437 -3.375 4.6875 C-4.16648437 4.95949219 -4.95796875 5.23148438 -5.7734375 5.51171875 C-8 6 -8 6 -11 5 C-9.21289414 4.13633178 -7.4201535 3.28431406 -5.625 2.4375 C-4.62726562 1.96183594 -3.62953125 1.48617187 -2.6015625 0.99609375 C-1.74304688 0.66738281 -0.88453125 0.33867188 0 0 Z " fill="#F15E1A" transform="translate(570,833)"/>
<path d="M0 0 C5.53846154 -0.36923077 5.53846154 -0.36923077 7.875 1.5 C8.24625 1.995 8.6175 2.49 9 3 C8.67 3.33 8.34 3.66 8 4 C5.66055264 3.71269945 3.3260857 3.38063221 1 3 C0.67 2.01 0.34 1.02 0 0 Z " fill="#F4702B" transform="translate(444,832)"/>
<path d="M0 0 C3.39417765 3.12621626 5.6062718 5.56541027 7 10 C6.01 10 5.02 10 4 10 C4 9.34 4 8.68 4 8 C3.34 8 2.68 8 2 8 C1.34 5.36 0.68 2.72 0 0 Z " fill="#F35B18" transform="translate(580,255)"/>
<path d="M0 0 C2.92879371 0.62759865 5.36095629 1.58622659 8 3 C8 3.66 8 4.32 8 5 C5.69 4.67 3.38 4.34 1 4 C0.67 2.68 0.34 1.36 0 0 Z " fill="#F2661D" transform="translate(440,828)"/>
<path d="M0 0 C1.32 0 2.64 0 4 0 C2.90931332 3.77545388 2.0916909 6.47043472 -1 9 C-1.33 8.34 -1.66 7.68 -2 7 C-1.34 7 -0.68 7 0 7 C0 4.69 0 2.38 0 0 Z " fill="#E33728" transform="translate(754,705)"/>
<path d="M0 0 C0.33 0.66 0.66 1.32 1 2 C-0.98 4.64 -2.96 7.28 -5 10 C-5.33 9.01 -5.66 8.02 -6 7 C-4.78515625 5.17578125 -4.78515625 5.17578125 -3.0625 3.3125 C-2.49660156 2.68988281 -1.93070312 2.06726563 -1.34765625 1.42578125 C-0.90292969 0.95527344 -0.45820313 0.48476563 0 0 Z " fill="#FDD739" transform="translate(459,553)"/>
<path d="M0 0 C1.27875 0.103125 2.5575 0.20625 3.875 0.3125 C4.95394531 0.39951172 4.95394531 0.39951172 6.0546875 0.48828125 C8 1 8 1 10 4 C6.37 3.34 2.74 2.68 -1 2 C-0.67 1.34 -0.34 0.68 0 0 Z " fill="#F5924B" transform="translate(467,841)"/>
<path d="M0 0 C1.485 0.99 1.485 0.99 3 2 C3 2.66 3 3.32 3 4 C2.34 4 1.68 4 1 4 C1 7.63 1 11.26 1 15 C0.67 15 0.34 15 0 15 C0 10.05 0 5.1 0 0 Z " fill="#E33B2B" transform="translate(702,344)"/>
<path d="M0 0 C1.953125 0.6484375 1.953125 0.6484375 4 2 C4.609375 4.6015625 4.609375 4.6015625 4.75 7.625 C4.80671875 8.62789063 4.8634375 9.63078125 4.921875 10.6640625 C4.94765625 11.43492187 4.9734375 12.20578125 5 13 C3.09610151 10.14415227 2.30537823 8.0688238 1.375 4.8125 C0.98441406 3.46091797 0.98441406 3.46091797 0.5859375 2.08203125 C0.39257812 1.39496094 0.19921875 0.70789063 0 0 Z " fill="#DF180F" transform="translate(315,256)"/>
<path d="M0 0 C2 2 2 2 2.3125 4.9375 C1.96315081 8.36112209 1.45706557 8.82818742 -1 11 C-1.0270043 9.54176788 -1.04639787 8.08339325 -1.0625 6.625 C-1.07410156 5.81289063 -1.08570313 5.00078125 -1.09765625 4.1640625 C-1 2 -1 2 0 0 Z " fill="#E33C2A" transform="translate(788,597)"/>
<path d="M0 0 C0.99 0 1.98 0 3 0 C2.25 7.625 2.25 7.625 0 11 C0 7.37 0 3.74 0 0 Z " fill="#F47726" transform="translate(640,504)"/>
<path d="M0 0 C0.33 0.99 0.66 1.98 1 3 C-1.31 3.33 -3.62 3.66 -6 4 C-6.33 3.01 -6.66 2.02 -7 1 C-4.50935112 0.31292445 -2.62113708 0 0 0 Z " fill="#E53A2C" transform="translate(463,844)"/>
<path d="M0 0 C1 2 1 2 0.3125 4.4375 C-1.10829685 7.21143671 -2.39746148 8.35172561 -5 10 C-3.66511872 6.40608886 -2.03977277 3.24509304 0 0 Z " fill="#DB2621" transform="translate(706,724)"/>
<path d="M0 0 C3.125 6.25 3.125 6.25 2 11 C1.01 10.34 0.02 9.68 -1 9 C-0.67 6.03 -0.34 3.06 0 0 Z " fill="#E53A2D" transform="translate(325,285)"/>
<path d="M0 0 C0.66 0.33 1.32 0.66 2 1 C2 1.99 2 2.98 2 4 C-0.5 6.1875 -0.5 6.1875 -3 8 C-3.66 7.67 -4.32 7.34 -5 7 C-4.360625 6.21625 -3.72125 5.4325 -3.0625 4.625 C-1.01857687 2.20460719 -1.01857687 2.20460719 0 0 Z " fill="#F76D2E" transform="translate(494,96)"/>
<path d="M0 0 C2 1 2 1 2 1 Z " fill="#E67D7B" transform="translate(520,852)"/>
<path d="" fill="#E9350A" transform="translate(0,0)"/>
</svg>
